<svg xmlns="http://www.w3.org/2000/svg" viewBox="0 0 270 90"><title>ictsc-logo-white</title><polygon points="19.938 80.753 19.938 79.796 22.172 79.796 22.172 73.407 19.938 73.407 19.938 72.45 25.678 72.45 25.678 73.407 23.446 73.407 23.446 79.796 25.678 79.796 25.678 80.753 19.938 80.753" style="fill:#fff"/><path d="M34.944,80.495a7.18,7.18,0,0,1-2.414.459,4.358,4.358,0,0,1-3.191-1.188,4.177,4.177,0,0,1-1.209-3.123,4.321,4.321,0,0,1,1.2-3.177,4.228,4.228,0,0,1,3.144-1.217,8.208,8.208,0,0,1,2.356.376V73.8a5.759,5.759,0,0,0-2.395-.589,2.7,2.7,0,0,0-2.119.944,3.512,3.512,0,0,0-.832,2.408,3.215,3.215,0,0,0,3.353,3.353,6,6,0,0,0,2.1-.466Z" style="fill:#fff"/><polygon points="39.47 80.753 39.47 73.407 36.281 73.407 36.281 72.45 43.943 72.45 43.943 73.407 40.745 73.407 40.745 80.753 39.47 80.753" style="fill:#fff"/><polygon points="56.769 80.753 56.769 73.407 53.578 73.407 53.578 72.45 61.242 72.45 61.242 73.407 58.044 73.407 58.044 80.753 56.769 80.753" style="fill:#fff"/><path d="M64.06,80.753V73.726h1.273v1.32a2.99,2.99,0,0,1,2.61-1.477,6.122,6.122,0,0,1,1.306.163v1.994h-.957v-.979a2.371,2.371,0,0,0-.517-.064,2.4,2.4,0,0,0-1.285.34,4.412,4.412,0,0,0-1.157,1.155v4.575Z" style="fill:#fff"/><path d="M74.708,80.915a3.109,3.109,0,0,1-2.432-.98,4.542,4.542,0,0,1,0-5.385,3.5,3.5,0,0,1,4.858,0,4.547,4.547,0,0,1,0,5.385,3.105,3.105,0,0,1-2.43.98m0-.957a1.669,1.669,0,0,0,1.436-.719,4.1,4.1,0,0,0,0-3.993,1.8,1.8,0,0,0-2.874,0,4.113,4.113,0,0,0,0,3.993,1.675,1.675,0,0,0,1.438.719" style="fill:#fff"/><path d="M86.173,73.725v7.027H84.9v-1.32a2.689,2.689,0,0,1-2.4,1.482q-1.995,0-1.994-2.38V73.725h1.275v4.459a2.056,2.056,0,0,0,.252,1.174,1,1,0,0,0,.862.346q.957,0,2.006-1.384v-4.6Z" style="fill:#fff"/><path d="M89.132,80.831v-10.3h1.275v4.512a2.688,2.688,0,0,1,2.3-1.477,2.228,2.228,0,0,1,1.885.923,4.1,4.1,0,0,1,.689,2.515,4.58,4.58,0,0,1-.814,2.828,2.553,2.553,0,0,1-2.137,1.08,2.407,2.407,0,0,1-1.922-.957l-.316.873ZM90.407,79a2.475,2.475,0,0,0,1.748.958,1.455,1.455,0,0,0,1.3-.741,3.923,3.923,0,0,0,.463-2.074q0-2.487-1.481-2.486A2.6,2.6,0,0,0,90.407,76Z" style="fill:#fff"/><polygon points="100.493 80.753 100.493 71.492 97.782 71.492 97.782 70.534 101.768 70.534 101.768 80.753 100.493 80.753" style="fill:#fff"/><path d="M112.417,80.475a7.8,7.8,0,0,1-2.434.44,3.872,3.872,0,0,1-2.785-.932,3.514,3.514,0,0,1-.974-2.666,3.912,3.912,0,0,1,.935-2.693,3.039,3.039,0,0,1,2.379-1.055,2.562,2.562,0,0,1,2.145.874,4.377,4.377,0,0,1,.689,2.718v.408h-4.789a2.279,2.279,0,0,0,2.576,2.389,6.11,6.11,0,0,0,2.258-.493Zm-4.8-3.864h3.391V76.43q0-1.9-1.586-1.9a1.563,1.563,0,0,0-1.239.549,2.662,2.662,0,0,0-.566,1.534" style="fill:#fff"/><path d="M120.5,72.644V73.75a7.048,7.048,0,0,0-2.5-.543q-1.728,0-1.729,1.165a.966.966,0,0,0,.325.76,3.747,3.747,0,0,0,1.2.593l.814.284.778.265a2.256,2.256,0,0,1,1.806,2.148,2.182,2.182,0,0,1-.923,1.842,4.025,4.025,0,0,1-2.469.69,11.212,11.212,0,0,1-2.776-.459V79.232a7.213,7.213,0,0,0,2.815.765,2.689,2.689,0,0,0,1.508-.374,1.145,1.145,0,0,0,.562-1,.928.928,0,0,0-.332-.756,5.215,5.215,0,0,0-1.375-.66l-.855-.311a5.038,5.038,0,0,1-1.77-.971,1.8,1.8,0,0,1-.494-1.327,2.1,2.1,0,0,1,.76-1.734,3.312,3.312,0,0,1,2.138-.616,9.376,9.376,0,0,1,2.518.4" style="fill:#fff"/><path d="M123.788,80.753V70.534h1.275v4.512a2.685,2.685,0,0,1,2.395-1.477q2,0,2,2.376v4.808h-1.273V76.294a2.026,2.026,0,0,0-.256-1.168,1,1,0,0,0-.858-.346q-.957,0-2.006,1.379v4.594Z" style="fill:#fff"/><path d="M135.251,80.915a3.108,3.108,0,0,1-2.43-.98,4.538,4.538,0,0,1,0-5.385,3.5,3.5,0,0,1,4.858,0,4.551,4.551,0,0,1,0,5.385,3.106,3.106,0,0,1-2.432.98m0-.957a1.675,1.675,0,0,0,1.438-.719,4.113,4.113,0,0,0,0-3.993,1.8,1.8,0,0,0-2.874,0,4.113,4.113,0,0,0,0,3.993,1.674,1.674,0,0,0,1.436.719" style="fill:#fff"/><path d="M143.9,80.915a3.109,3.109,0,0,1-2.432-.98,4.543,4.543,0,0,1,0-5.385,3.5,3.5,0,0,1,4.858,0,4.546,4.546,0,0,1,0,5.385,3.1,3.1,0,0,1-2.43.98m0-.957a1.669,1.669,0,0,0,1.436-.719,4.1,4.1,0,0,0,0-3.993,1.8,1.8,0,0,0-2.874,0,4.114,4.114,0,0,0,0,3.993,1.675,1.675,0,0,0,1.438.719" style="fill:#fff"/><path d="M155.688,80.747a10.717,10.717,0,0,1-1.85.168,2.184,2.184,0,0,1-2.687-2.68v-3.39H149.4v-.958h1.752V72.372h1.275v1.515h3.119v.958h-3.119v3.6a3.142,3.142,0,0,0,.074.829.788.788,0,0,0,.323.4,2.329,2.329,0,0,0,1.283.292,6.976,6.976,0,0,0,1.582-.182Z" style="fill:#fff"/><path d="M160.882,80.752v-6.07h-2.557v-.957h3.832v7.027Zm-.162-10.218h1.6v1.6h-1.6Z" style="fill:#fff"/><path d="M167.034,80.753V73.726h1.273v1.32a2.689,2.689,0,0,1,2.4-1.477q2,0,2,2.376v4.808h-1.273V76.294a2.026,2.026,0,0,0-.256-1.168,1,1,0,0,0-.858-.346q-.957,0-2.008,1.379v4.594Z" style="fill:#fff"/><path d="M175.876,83.1l.137-1.074a5.472,5.472,0,0,0,2.129.485q2.044,0,2.044-1.948l.059-1.268a2.527,2.527,0,0,1-2.324,1.455,2.29,2.29,0,0,1-1.912-.914,3.923,3.923,0,0,1-.709-2.467,4.351,4.351,0,0,1,.822-2.745,2.586,2.586,0,0,1,2.137-1.057,2.944,2.944,0,0,1,2.025.959v-.8h1.2v5.623A8.678,8.678,0,0,1,181.3,81.4a2.792,2.792,0,0,1-.68,1.219,3.267,3.267,0,0,1-2.492.848,8.09,8.09,0,0,1-2.252-.369m4.33-4.841V75.5a2.417,2.417,0,0,0-1.779-.97,1.462,1.462,0,0,0-1.3.724,3.741,3.741,0,0,0-.467,2.031,3.16,3.16,0,0,0,.408,1.733,1.287,1.287,0,0,0,1.139.623,2.427,2.427,0,0,0,2-1.378" style="fill:#fff"/><path d="M199.278,80.495a7.171,7.171,0,0,1-2.414.459,4.359,4.359,0,0,1-3.191-1.188,4.177,4.177,0,0,1-1.209-3.123,4.321,4.321,0,0,1,1.2-3.177,4.228,4.228,0,0,1,3.144-1.217,8.232,8.232,0,0,1,2.358.376V73.8a5.774,5.774,0,0,0-2.4-.589,2.7,2.7,0,0,0-2.121.944,3.512,3.512,0,0,0-.832,2.408,3.215,3.215,0,0,0,3.353,3.353,6,6,0,0,0,2.1-.466Z" style="fill:#fff"/><path d="M204.446,80.915a3.109,3.109,0,0,1-2.432-.98,4.542,4.542,0,0,1,0-5.385,3.5,3.5,0,0,1,4.858,0,4.547,4.547,0,0,1,0,5.385,3.1,3.1,0,0,1-2.43.98m0-.957a1.674,1.674,0,0,0,1.436-.719,4.113,4.113,0,0,0,0-3.993,1.8,1.8,0,0,0-2.874,0,4.113,4.113,0,0,0,0,3.993,1.675,1.675,0,0,0,1.438.719" style="fill:#fff"/><path d="M210.278,80.753V73.726h1.275v1.32a2.687,2.687,0,0,1,2.4-1.477q2,0,2,2.376v4.808h-1.275V76.294a2.01,2.01,0,0,0-.256-1.168,1,1,0,0,0-.858-.346q-.957,0-2.006,1.379v4.594Z" style="fill:#fff"/><path d="M224.882,80.747a10.7,10.7,0,0,1-1.85.168,2.184,2.184,0,0,1-2.687-2.68v-3.39h-1.752v-.958h1.752V72.372h1.275v1.515h3.121v.958H221.62v3.6a3.142,3.142,0,0,0,.074.829.788.788,0,0,0,.323.4,2.329,2.329,0,0,0,1.283.292,6.976,6.976,0,0,0,1.582-.182Z" style="fill:#fff"/><path d="M233.507,80.475a7.805,7.805,0,0,1-2.434.44,3.877,3.877,0,0,1-2.787-.932,3.521,3.521,0,0,1-.974-2.666,3.912,3.912,0,0,1,.935-2.693,3.039,3.039,0,0,1,2.379-1.055,2.562,2.562,0,0,1,2.145.874,4.37,4.37,0,0,1,.689,2.718v.408h-4.789a2.279,2.279,0,0,0,2.576,2.389,6.119,6.119,0,0,0,2.26-.493Zm-4.8-3.864H232.1V76.43q0-1.9-1.584-1.9a1.564,1.564,0,0,0-1.241.549,2.675,2.675,0,0,0-.566,1.534" style="fill:#fff"/><path d="M236.259,80.468V79.317a6.669,6.669,0,0,0,2.563.64,2.406,2.406,0,0,0,1.285-.314.914.914,0,0,0,.507-.793q0-.615-1.209-1l-1.367-.446q-1.6-.519-1.6-1.827a1.72,1.72,0,0,1,.722-1.48,3.414,3.414,0,0,1,2.041-.525,10.284,10.284,0,0,1,2.3.3v1.035a8.066,8.066,0,0,0-2.3-.38,2.154,2.154,0,0,0-1.117.252.763.763,0,0,0-.418.679c0,.35.319.634.951.854l1.614.563a3.02,3.02,0,0,1,1.263.741,1.607,1.607,0,0,1,.385,1.117,1.859,1.859,0,0,1-.82,1.588,3.7,3.7,0,0,1-2.207.592,8.421,8.421,0,0,1-2.59-.446" style="fill:#fff"/><path d="M250.829,80.747a10.683,10.683,0,0,1-1.85.168,2.182,2.182,0,0,1-2.685-2.68v-3.39H244.54v-.958h1.754V72.372h1.273v1.515h3.121v.958h-3.121v3.6a3.033,3.033,0,0,0,.076.829.773.773,0,0,0,.321.4,2.333,2.333,0,0,0,1.283.292,6.976,6.976,0,0,0,1.582-.182Z" style="fill:#fff"/><path d="M230.022,21.912c-10.738,2.077-17.15,9.337-17.15,19.417s6.412,17.339,17.15,19.416a26.668,26.668,0,0,0,5.049.48,31.064,31.064,0,0,0,14.271-3.649l-.369-1.593a32.473,32.473,0,0,1-9.621,1.593,18.778,18.778,0,0,1-6.494-1.049c-7.32-2.694-10.049-10.753-10.049-15.2s2.729-12.5,10.049-15.2a18.79,18.79,0,0,1,6.5-1.049,32.275,32.275,0,0,1,9.471,1.541l4.8-12.011-.418-.209c-.654.581-4.947,4.391-6.812,5.975A7.023,7.023,0,0,1,241.706,22a11.35,11.35,0,0,1-1.868-.163,29.081,29.081,0,0,0-4.775-.4,26.666,26.666,0,0,0-5.041.479" style="fill:#fff"/><path d="M192.589,49.436a9.212,9.212,0,0,0-.928-4.3,10.254,10.254,0,0,0-2.426-3.054,16.211,16.211,0,0,0-3.408-2.218c-1.269-.624-2.551-1.206-3.8-1.733-1.155-.481-2.268-.96-3.3-1.423a15.774,15.774,0,0,1-2.869-1.63,7.976,7.976,0,0,1-2.026-2.094,5.162,5.162,0,0,1-.771-2.852,4.994,4.994,0,0,1,2.351-4.511,13.736,13.736,0,0,1,7.875-2.063c.477,0,.971.016,1.469.047a31.028,31.028,0,0,1,5.953,1.117l.334-1.553A51.927,51.927,0,0,0,180.6,21.686c-4.762,0-8.684,1.029-11.66,3.061a9.466,9.466,0,0,0-4.455,8.174,9.166,9.166,0,0,0,.912,4.257,10.177,10.177,0,0,0,2.379,3.028,15.007,15.007,0,0,0,3.343,2.162c1.258.6,2.53,1.179,3.778,1.72,1.148.47,2.275.95,3.351,1.422a16.135,16.135,0,0,1,2.914,1.645,7.836,7.836,0,0,1,2.057,2.123,5.316,5.316,0,0,1,.771,2.919,5.614,5.614,0,0,1-3.5,5.482,10.785,10.785,0,0,1-4.3,1.123,26.439,26.439,0,0,1-3.034.163,45.921,45.921,0,0,1-8.525-.892l-.324,1.508a42.438,42.438,0,0,0,11.18,1.582c5.13,0,9.316-1.058,12.435-3.144a9.836,9.836,0,0,0,4.672-8.583" style="fill:#fff"/><path d="M109.032,22.315v7.5l.986-.065,1.037-4.039a1.075,1.075,0,0,1,1.057-.869q.932-.031,2.055-.047h9.191v.166c0,5.672,0,27.862,0,27.862v5.312c0,1.545.647,2.2,2.16,2.2h11.848l-.065-.988-4.041-1.036a1.117,1.117,0,0,1-.925-1.056c-.012-.343-.008-.7,0-1.08,0-.312.008-.637,0-.975,0-.274,0-17.751,0-27.142V24.8h14.2l.508-2.484Z" style="fill:#fff"/><path d="M71.376,21.912c-10.74,2.077-17.152,9.337-17.152,19.417s6.412,17.34,17.152,19.416a26.647,26.647,0,0,0,5.047.48,30.782,30.782,0,0,0,14.111-3.562l-.211-1.205c-.32.109-.945.314-1.795.531a15.7,15.7,0,0,1-2.953.364c-.185,0-.357-.006-.511-.021-4.733-.434-7.913-5.448-8.9-8.712-.877-2.918-.822-8.709,3.061-11.824a10.753,10.753,0,0,1,3.515-1.809l.221-.914a14.8,14.8,0,0,0-2.774.538,13.883,13.883,0,0,0-2.638,1.1c-5.4,2.96-7.551,8.276-5.76,14.221A12.177,12.177,0,0,0,76.8,56.9l-.121.3a16.025,16.025,0,0,1-2.473-.682c-7.32-2.694-10.049-10.753-10.049-15.2s2.729-12.5,10.049-15.2a20.994,20.994,0,0,1,7.254-1.159,32.723,32.723,0,0,1,8.674,1.2l.381-1.182a30.793,30.793,0,0,0-14.1-3.553,26.729,26.729,0,0,0-5.047.479" style="fill:#fff"/><path d="M21.392,27.45c.006.443.01,9.309.012,15.938l0,14.751c0,1.545.646,2.2,2.16,2.2H35.415l-.066-.989L31.31,58.318a1.121,1.121,0,0,1-.928-1.055c-.011-.341-.006-.7,0-1.071,0-.315.008-.643,0-.984,0-.209,0-2.641,0-6.006,0-3.279,0-7.472,0-11.455,0-6.894,0-13.229,0-13.229,0-1.545-.644-2.2-2.158-2.2H16.371l.066.989,4.039,1.036a1.072,1.072,0,0,1,.869,1.055q.03.935.047,2.055" style="fill:#fff"/><polygon points="25.282 15.172 22.309 6.529 17.483 9.696 24.628 15.499 25.282 15.172" style="fill:#fff"/></svg>