<svg xmlns="http://www.w3.org/2000/svg" viewBox="0 0 313.28 133.52"><defs><style>.a{fill:#fff}.b{fill:none}</style></defs><title>ictsc-logo-white</title><path class="a" d="M41.58 102.51v-.96h2.23v-6.38h-2.23v-.96h5.74v.96h-2.23v6.38h2.23v.96h-5.74zm15.01-.26a7.18 7.18 0 0 1-2.41.46 4.36 4.36 0 0 1-3.18-1.19 4.18 4.18 0 0 1-1.21-3.12A4.32 4.32 0 0 1 51 95.22 4.23 4.23 0 0 1 54.12 94a8.21 8.21 0 0 1 2.36.38v1.17a5.76 5.76 0 0 0-2.4-.55 2.7 2.7 0 0 0-2.12.94 3.51 3.51 0 0 0-.83 2.41 3.21 3.21 0 0 0 3.35 3.35 6 6 0 0 0 2.1-.47v1zm4.52.26v-7.34h-3.19v-.96h7.66v.96h-3.19v7.34h-1.28zm17.3 0v-7.34h-3.19v-.96h7.66v.96h-3.19v7.34h-1.28zm7.29 0v-7H87v1.29a3 3 0 0 1 2.61-1.48 6.12 6.12 0 0 1 1.31.16v2h-1v-1a2.37 2.37 0 0 0-.52-.06 2.4 2.4 0 0 0-1.29.34A4.41 4.41 0 0 0 87 97.94v4.57h-1.3zm10.65.16a3.11 3.11 0 0 1-2.43-1 4.54 4.54 0 0 1 0-5.38 3.5 3.5 0 0 1 4.86 0 4.55 4.55 0 0 1 0 5.38 3.11 3.11 0 0 1-2.43 1m0-1a1.67 1.67 0 0 0 1.44-.72 4.1 4.1 0 0 0 0-4 1.8 1.8 0 0 0-2.87 0 4.11 4.11 0 0 0 0 4 1.68 1.68 0 0 0 1.44.72m11.45-6.19v7h-1.27v-1.32a2.69 2.69 0 0 1-2.4 1.48q-2 0-2-2.38v-4.78h1.27v4.46a2.06 2.06 0 0 0 .25 1.17 1 1 0 0 0 .86.35 2.79 2.79 0 0 0 2-1.38v-4.6h1.27zm2.96 7.11v-10.3H112v4.51a2.69 2.69 0 0 1 2.3-1.48 2.23 2.23 0 0 1 1.89.92 4.1 4.1 0 0 1 .69 2.51 4.58 4.58 0 0 1-.81 2.83 2.55 2.55 0 0 1-2.14 1.08 2.41 2.41 0 0 1-1.92-1l-.32.87h-1zm1.27-1.83a2.48 2.48 0 0 0 1.75 1 1.46 1.46 0 0 0 1.3-.74 3.92 3.92 0 0 0 .46-2.07q0-2.49-1.48-2.49a2.6 2.6 0 0 0-2 1.35v3zm10.09 1.75v-9.26h-2.71v-.96h3.99v10.22h-1.28zm11.93-.28a7.8 7.8 0 0 1-2.43.44 3.87 3.87 0 0 1-2.79-.93 3.51 3.51 0 0 1-1-2.67 3.91 3.91 0 0 1 .94-2.69 3 3 0 0 1 2.38-1.05 2.56 2.56 0 0 1 2.15.87 4.38 4.38 0 0 1 .69 2.72v.41h-4.79a2.28 2.28 0 0 0 2.58 2.39 6.11 6.11 0 0 0 2.26-.49v1zm-4.8-3.86h3.39v-.18q0-1.9-1.59-1.9a1.56 1.56 0 0 0-1.24.55 2.66 2.66 0 0 0-.57 1.53m12.89-3.97v1.11a7 7 0 0 0-2.5-.54q-1.73 0-1.73 1.16a1 1 0 0 0 .33.76 3.75 3.75 0 0 0 1.2.59l.81.28.75.24a2.26 2.26 0 0 1 1.81 2.15 2.18 2.18 0 0 1-.92 1.84 4 4 0 0 1-2.47.69 11.21 11.21 0 0 1-2.78-.46V101a7.21 7.21 0 0 0 2.82.76 2.69 2.69 0 0 0 1.51-.37 1.14 1.14 0 0 0 .56-1 .93.93 0 0 0-.33-.76 5.22 5.22 0 0 0-1.37-.66l-.83-.32a5 5 0 0 1-1.77-1 1.8 1.8 0 0 1-.49-1.33 2.1 2.1 0 0 1 .76-1.73 3.31 3.31 0 0 1 2.14-.62 9.38 9.38 0 0 1 2.52.4m3.27 8.14V92.29h1.28v4.51a2.68 2.68 0 0 1 2.39-1.48q2 0 2 2.38v4.81h-1.27v-4.46a2 2 0 0 0-.26-1.17 1 1 0 0 0-.86-.35 2.79 2.79 0 0 0-2 1.38v4.59h-1.28zm11.46.16a3.11 3.11 0 0 1-2.43-1 4.54 4.54 0 0 1 0-5.38 3.5 3.5 0 0 1 4.86 0 4.55 4.55 0 0 1 0 5.38 3.11 3.11 0 0 1-2.43 1m0-1a1.68 1.68 0 0 0 1.44-.72 4.11 4.11 0 0 0 0-4 1.8 1.8 0 0 0-2.87 0 4.11 4.11 0 0 0 0 4 1.67 1.67 0 0 0 1.44.72m8.64 1a3.11 3.11 0 0 1-2.43-1 4.54 4.54 0 0 1 0-5.38 3.5 3.5 0 0 1 4.86 0 4.55 4.55 0 0 1 0 5.38 3.1 3.1 0 0 1-2.43 1m0-1A1.67 1.67 0 0 0 167 101a4.1 4.1 0 0 0 0-4 1.8 1.8 0 0 0-2.87 0 4.11 4.11 0 0 0 0 4 1.68 1.68 0 0 0 1.44.72m11.76.79a10.72 10.72 0 0 1-1.85.17 2.18 2.18 0 0 1-2.69-2.68v-3.4H171v-1h1.75v-1.47h1.28v1.51h3.12v1h-3.12v3.6a3.14 3.14 0 0 0 .07.83.79.79 0 0 0 .32.4 2.33 2.33 0 0 0 1.28.29 7 7 0 0 0 1.58-.18v1zm5.19 0v-6.07H180v-1h3.83v7h-1.28zm-.16-10.22H184v1.6h-1.6v-1.6zm6.32 10.22v-7h1.27v1.29a2.69 2.69 0 0 1 2.4-1.48q2 0 2 2.38v4.81h-1.27v-4.46a2 2 0 0 0-.26-1.17 1 1 0 0 0-.86-.35 2.79 2.79 0 0 0-2 1.38v4.59h-1.27zm8.84 2.35l.14-1.07a5.47 5.47 0 0 0 2.13.49 1.77 1.77 0 0 0 2-1.95l.06-1.27a2.53 2.53 0 0 1-2.32 1.46 2.29 2.29 0 0 1-1.91-.91 3.92 3.92 0 0 1-.71-2.47 4.35 4.35 0 0 1 .82-2.74 2.59 2.59 0 0 1 2.14-1.06 2.94 2.94 0 0 1 2 1v-.8h1.2v5.62a8.68 8.68 0 0 1-.18 2.06 2.79 2.79 0 0 1-.68 1.22 3.27 3.27 0 0 1-2.49.85 8.09 8.09 0 0 1-2.25-.37m4.33-4.84v-2.82a2.42 2.42 0 0 0-1.78-1 1.46 1.46 0 0 0-1.3.72 3.74 3.74 0 0 0-.47 2 3.16 3.16 0 0 0 .41 1.73 1.29 1.29 0 0 0 1.14.62 2.43 2.43 0 0 0 2-1.38m19.12 2.3a7.17 7.17 0 0 1-2.41.46 4.36 4.36 0 0 1-3.19-1.19 4.18 4.18 0 0 1-1.21-3.12 4.32 4.32 0 0 1 1.2-3.18 4.23 4.23 0 0 1 3.14-1.22 8.23 8.23 0 0 1 2.36.38v1.17a5.77 5.77 0 0 0-2.4-.59 2.7 2.7 0 0 0-2.12.94 3.51 3.51 0 0 0-.83 2.41 3.21 3.21 0 0 0 3.35 3.35 6 6 0 0 0 2.1-.47v1zm5.17.42a3.11 3.11 0 0 1-2.43-1 4.54 4.54 0 0 1 0-5.38 3.5 3.5 0 0 1 4.86 0 4.55 4.55 0 0 1 0 5.38 3.1 3.1 0 0 1-2.43 1m0-1a1.67 1.67 0 0 0 1.44-.72 4.11 4.11 0 0 0 0-4 1.8 1.8 0 0 0-2.87 0 4.11 4.11 0 0 0 0 4 1.68 1.68 0 0 0 1.44.72m5.82.84v-7h1.28v1.29a2.69 2.69 0 0 1 2.4-1.48q2 0 2 2.38v4.81h-1.28v-4.46a2 2 0 0 0-.26-1.17 1 1 0 0 0-.86-.35 2.79 2.79 0 0 0-2 1.38v4.59h-1.28zm14.6 0a10.7 10.7 0 0 1-1.85.17A2.18 2.18 0 0 1 242 100v-3.4h-1.75v-1H242v-1.47h1.28v1.51h3.12v1h-3.12v3.6a3.14 3.14 0 0 0 .07.83.79.79 0 0 0 .32.4 2.33 2.33 0 0 0 1.28.29 7 7 0 0 0 1.58-.18v1zm8.63-.28a7.81 7.81 0 0 1-2.43.44 3.88 3.88 0 0 1-2.79-.93 3.52 3.52 0 0 1-1-2.67 3.91 3.91 0 0 1 .93-2.69 3 3 0 0 1 2.38-1.05 2.56 2.56 0 0 1 2.15.87 4.37 4.37 0 0 1 .69 2.72v.41h-4.79a2.28 2.28 0 0 0 2.58 2.39 6.12 6.12 0 0 0 2.26-.49v1zm-4.8-3.86h3.39v-.18q0-1.9-1.58-1.9a1.56 1.56 0 0 0-1.24.55 2.68 2.68 0 0 0-.57 1.53m7.55 3.86v-1.15a6.67 6.67 0 0 0 2.56.64 2.41 2.41 0 0 0 1.29-.31.91.91 0 0 0 .51-.79q0-.62-1.21-1l-1.37-.45a1.91 1.91 0 0 1-1.6-1.83 1.72 1.72 0 0 1 .72-1.48 3.41 3.41 0 0 1 2-.52 10.28 10.28 0 0 1 2.3.3v1a8.07 8.07 0 0 0-2.3-.38 2.15 2.15 0 0 0-1.12.25.76.76 0 0 0-.42.68 1.1 1.1 0 0 0 1 .85l1.61.56a3 3 0 0 1 1.26.74 1.61 1.61 0 0 1 .39 1.12 1.86 1.86 0 0 1-.82 1.59 3.7 3.7 0 0 1-2.21.59 8.42 8.42 0 0 1-2.59-.45m14.57.32a10.68 10.68 0 0 1-1.85.17 2.18 2.18 0 0 1-2.68-2.68v-3.4h-1.75v-1h1.75v-1.47h1.27v1.51h3.12v1h-3.12v3.6a3 3 0 0 0 .08.83.77.77 0 0 0 .32.4 2.33 2.33 0 0 0 1.28.29 7 7 0 0 0 1.58-.18v1zm-20.81-58.84c-10.74 2.08-17.15 9.34-17.15 19.42s6.41 17.34 17.15 19.42a26.67 26.67 0 0 0 5 .48A31.06 31.06 0 0 0 271 79.33l-.37-1.59a32.47 32.47 0 0 1-9.63 1.59 18.78 18.78 0 0 1-6.49-1c-7.32-2.69-10-10.75-10-15.2s2.73-12.5 10-15.2a18.79 18.79 0 0 1 6.5-1 32.28 32.28 0 0 1 9.47 1.54l4.8-12-.42-.21c-.65.58-4.95 4.39-6.81 6a7 7 0 0 1-4.69 1.62 11.35 11.35 0 0 1-1.87-.16 29.08 29.08 0 0 0-4.78-.4 26.67 26.67 0 0 0-5 .48m-37.48 27.39a9.21 9.21 0 0 0-.93-4.3 10.25 10.25 0 0 0-2.43-3.05 16.21 16.21 0 0 0-3.41-2.22c-1.27-.62-2.55-1.21-3.8-1.73s-2.27-1-3.3-1.42a15.77 15.77 0 0 1-2.87-1.63 8 8 0 0 1-2-2.09 5.16 5.16 0 0 1-.77-2.85 5 5 0 0 1 2.28-4.52 13.74 13.74 0 0 1 7.88-2.06h1.47a31 31 0 0 1 6 1.12l.33-1.55a51.93 51.93 0 0 0-10.43-1.48c-4.76 0-8.68 1-11.66 3.06a9.47 9.47 0 0 0-4.46 8.17 9.17 9.17 0 0 0 .91 4.26 10.18 10.18 0 0 0 2.38 3 15 15 0 0 0 3.34 2.16c1.26.6 2.53 1.18 3.78 1.72s2.28.95 3.35 1.42a16.13 16.13 0 0 1 2.91 1.65 7.84 7.84 0 0 1 2.06 2.15 5.32 5.32 0 0 1 .77 2.92 5.61 5.61 0 0 1-3.5 5.48 10.79 10.79 0 0 1-4.3 1.12 26.44 26.44 0 0 1-3 .16 45.92 45.92 0 0 1-8.52-.89l-.32 1.51a42.44 42.44 0 0 0 11.18 1.58c5.13 0 9.32-1.06 12.43-3.14a9.84 9.84 0 0 0 4.67-8.58m-83.6-27.09v7.5l1-.07 1-4a1.08 1.08 0 0 1 1.06-.87H145V79.9c0 1.54.65 2.2 2.16 2.2H159l-.07-1-4-1A1.12 1.12 0 0 1 154 79V46.56h14.2l.51-2.48h-38zM93 43.67C82.28 45.75 75.87 53 75.87 63.09S82.28 80.43 93 82.5a26.65 26.65 0 0 0 5 .48 30.78 30.78 0 0 0 14.11-3.56l-.11-1.2c-.32.11-.95.31-1.79.53a15.7 15.7 0 0 1-3 .36h-.51c-4.73-.43-7.91-5.45-8.9-8.71-.88-2.92-.82-8.71 3.06-11.82a10.75 10.75 0 0 1 3.51-1.81l.22-.91a14.8 14.8 0 0 0-2.77.54 13.88 13.88 0 0 0-2.64 1.1c-5.4 3-7.55 8.28-5.76 14.22a12.18 12.18 0 0 0 5 7l-.12.3a16 16 0 0 1-2.47-.68c-7.32-2.69-10-10.75-10-15.2s2.73-12.5 10-15.2a21 21 0 0 1 7.25-1.16 32.72 32.72 0 0 1 8.67 1.2l.38-1.18a30.79 30.79 0 0 0-14.1-3.55 26.73 26.73 0 0 0-5 .48M43 49.21V79.9c0 1.54.65 2.2 2.16 2.2h11.9l-.07-1-4-1A1.12 1.12 0 0 1 52 79V46.25c0-1.54-.64-2.2-2.16-2.2H38l.07 1 4 1a1.07 1.07 0 0 1 .93 1.1v2.05m3.92-12.27l-2.97-8.64-4.83 3.16 7.15 5.81.65-.33z"/><path class="b" d="M0 0h313.28v133.52H0z"/></svg>